<?xml version="1.0" encoding="UTF-8" standalone="no"?>
<!DOCTYPE svg PUBLIC "-//W3C//DTD SVG 1.0//EN" "http://www.w3.org/TR/2001/REC-SVG-20010904/DTD/svg10.dtd">
<!-- Generated by Microsoft Visio 11.0, SVG Export, v1.0 xelp-icon-ov.svg Page-1 -->
<svg xmlns="http://www.w3.org/2000/svg" xmlns:xlink="http://www.w3.org/1999/xlink" xmlns:ev="http://www.w3.org/2001/xml-events"
		xmlns:v="http://schemas.microsoft.com/visio/2003/SVGExtensions/" width="1.57813in" height="1.56973in"
		viewBox="0 0 113.625 113.02" xml:space="preserve" color-interpolation-filters="sRGB" class="st4">
	<v:documentProperties v:langID="1033" v:viewMarkup="false"/>

	<style type="text/css">
	<![CDATA[
		.st1 {fill:#ffffff;stroke:#000000;stroke-linecap:butt;stroke-width:4.5}
		.st2 {fill:#000000;stroke:#000000;stroke-linecap:butt;stroke-width:4.5}
		.st3 {fill:#ffffff;stroke:none;stroke-linecap:round;stroke-linejoin:round;stroke-width:0.24}
		.st4 {fill:none;fill-rule:evenodd;font-size:12px;overflow:visible;stroke-linecap:square;stroke-miterlimit:3}
	]]>
	</style>

	<g v:mID="0" v:index="1" v:groupContext="foregroundPage">
		<title>Page-1</title>
		<v:pageProperties v:drawingScale="1" v:pageScale="1" v:drawingUnits="0" v:shadowOffsetX="9" v:shadowOffsetY="-9"/>
		<g id="group357-1" transform="translate(4.5,-4.5)" v:mID="357" v:groupContext="group">
			<title>Sheet.357</title>
			<g id="shape359-2" v:mID="359" v:groupContext="shape" transform="translate(0,-9.37355)">
				<title>Sheet.359</title>
				<rect x="0" y="18.3736" width="96.75" height="94.6467" class="st1"/>
			</g>
			<g id="shape360-4" v:mID="360" v:groupContext="shape" transform="translate(12.375,0)">
				<title>Sheet.360</title>
				<rect x="0" y="24.8506" width="92.25" height="88.1697" class="st2"/>
			</g>
			<g id="shape361-6" v:mID="361" v:groupContext="shape" transform="translate(22.5,-56.6697)">
				<title>Sheet.361</title>
				<rect x="0" y="104.92" width="7.2" height="8.1" class="st3"/>
			</g>
			<g id="shape362-8" v:mID="362" v:groupContext="shape" transform="translate(28.125,-48.5697)">
				<title>Sheet.362</title>
				<rect x="0" y="104.92" width="8.775" height="8.1" class="st3"/>
			</g>
			<g id="shape363-10" v:mID="363" v:groupContext="shape" transform="translate(35.7188,-40.4697)">
				<title>Sheet.363</title>
				<rect x="0" y="104.92" width="9.84375" height="8.1" class="st3"/>
			</g>
			<g id="shape364-12" v:mID="364" v:groupContext="shape" transform="translate(22.5,-64.7697)">
				<title>Sheet.364</title>
				<rect x="0" y="104.92" width="7.2" height="8.1" class="st3"/>
			</g>
			<g id="shape365-14" v:mID="365" v:groupContext="shape" transform="translate(58.5,-56.6697) scale(-1,1)">
				<title>Sheet.365</title>
				<rect x="0" y="104.92" width="7.2" height="8.1" class="st3"/>
			</g>
			<g id="shape366-16" v:mID="366" v:groupContext="shape" transform="translate(52.3125,-48.5697) scale(-1,1)">
				<title>Sheet.366</title>
				<rect x="0" y="104.92" width="8.2125" height="8.1" class="st3"/>
			</g>
			<g id="shape367-18" v:mID="367" v:groupContext="shape" transform="translate(58.5,-64.7697) scale(-1,1)">
				<title>Sheet.367</title>
				<rect x="0" y="104.92" width="7.2" height="8.1" class="st3"/>
			</g>
			<g id="shape368-20" v:mID="368" v:groupContext="shape" transform="translate(58.5,193.671) rotate(180)">
				<title>Sheet.368</title>
				<rect x="0" y="104.92" width="7.2" height="8.1" class="st3"/>
			</g>
			<g id="shape369-22" v:mID="369" v:groupContext="shape" transform="translate(52.875,185.571) rotate(180)">
				<title>Sheet.369</title>
				<rect x="0" y="104.92" width="8.775" height="8.1" class="st3"/>
			</g>
			<g id="shape370-24" v:mID="370" v:groupContext="shape" transform="translate(58.5,201.771) rotate(180)">
				<title>Sheet.370</title>
				<rect x="0" y="104.92" width="7.2" height="8.1" class="st3"/>
			</g>
			<g id="shape371-26" v:mID="371" v:groupContext="shape" transform="translate(22.5,193.671) scale(1,-1)">
				<title>Sheet.371</title>
				<rect x="0" y="104.92" width="7.2" height="8.1" class="st3"/>
			</g>
			<g id="shape372-28" v:mID="372" v:groupContext="shape" transform="translate(28.125,185.571) scale(1,-1)">
				<title>Sheet.372</title>
				<rect x="0" y="104.92" width="8.775" height="8.1" class="st3"/>
			</g>
			<g id="shape373-30" v:mID="373" v:groupContext="shape" transform="translate(22.5,201.771) scale(1,-1)">
				<title>Sheet.373</title>
				<rect x="0" y="104.92" width="7.2" height="8.1" class="st3"/>
			</g>
			<g id="shape374-32" v:mID="374" v:groupContext="shape" transform="translate(70.875,-64.7697)">
				<title>Sheet.374</title>
				<rect x="0" y="104.92" width="7.875" height="8.1" class="st3"/>
			</g>
			<g id="shape375-34" v:mID="375" v:groupContext="shape" transform="translate(77.625,-56.6697)">
				<title>Sheet.375</title>
				<rect x="0" y="104.92" width="7.875" height="8.1" class="st3"/>
			</g>
			<g id="shape376-36" v:mID="376" v:groupContext="shape" transform="translate(84.375,-48.5697)">
				<title>Sheet.376</title>
				<rect x="0" y="104.92" width="7.875" height="8.1" class="st3"/>
			</g>
			<g id="shape377-38" v:mID="377" v:groupContext="shape" transform="translate(91.125,-40.4697)">
				<title>Sheet.377</title>
				<rect x="0" y="104.92" width="7.875" height="8.1" class="st3"/>
			</g>
			<g id="shape378-40" v:mID="378" v:groupContext="shape" transform="translate(197.395,72.5506) rotate(90)">
				<title>Sheet.378</title>
				<rect x="0" y="105.145" width="8.1" height="7.875" class="st3"/>
			</g>
			<g id="shape379-42" v:mID="379" v:groupContext="shape" transform="translate(190.645,80.6506) rotate(90)">
				<title>Sheet.379</title>
				<rect x="0" y="105.145" width="8.1" height="7.875" class="st3"/>
			</g>
			<g id="shape380-44" v:mID="380" v:groupContext="shape" transform="translate(183.895,88.7506) rotate(90)">
				<title>Sheet.380</title>
				<rect x="0" y="105.145" width="8.1" height="7.875" class="st3"/>
			</g>
		</g>
	</g>
</svg>
