<?xml version="1.0" encoding="UTF-8" standalone="no"?>
<!DOCTYPE svg PUBLIC "-//W3C//DTD SVG 1.0//EN" "http://www.w3.org/TR/2001/REC-SVG-20010904/DTD/svg10.dtd">
<!-- Generated by Microsoft Visio 11.0, SVG Export, v1.0 xelp-prompt.svg Page-1 -->
<svg xmlns="http://www.w3.org/2000/svg" xmlns:xlink="http://www.w3.org/1999/xlink" xmlns:ev="http://www.w3.org/2001/xml-events"
		xmlns:v="http://schemas.microsoft.com/visio/2003/SVGExtensions/" width="7.50667in" height="2.0259in"
		viewBox="0 0 540.48 145.865" xml:space="preserve" color-interpolation-filters="sRGB" class="st2">
	<v:documentProperties v:langID="1033" v:viewMarkup="false"/>

	<style type="text/css">
	<![CDATA[
		.st1 {fill:#000000;stroke:#000000;stroke-linecap:round;stroke-linejoin:round;stroke-width:0.24}
		.st2 {fill:none;fill-rule:evenodd;font-size:12px;overflow:visible;stroke-linecap:square;stroke-miterlimit:3}
	]]>
	</style>

	<g v:mID="0" v:index="1" v:groupContext="foregroundPage">
		<title>Page-1</title>
		<v:pageProperties v:drawingScale="1" v:pageScale="1" v:drawingUnits="0" v:shadowOffsetX="9" v:shadowOffsetY="-9"/>
		<g id="shape1-1" v:mID="1" v:groupContext="shape" transform="translate(0.24,-104.086)">
			<title>Sheet.1</title>
			<rect x="0" y="125.095" width="20.7692" height="20.7692" class="st1"/>
		</g>
		<g id="shape2-3" v:mID="2" v:groupContext="shape" transform="translate(21.0092,-83.3169)">
			<title>Sheet.2</title>
			<rect x="0" y="125.095" width="20.7692" height="20.7692" class="st1"/>
		</g>
		<g id="shape3-5" v:mID="3" v:groupContext="shape" transform="translate(41.7785,-62.5477)">
			<title>Sheet.3</title>
			<rect x="0" y="125.095" width="20.7692" height="20.7692" class="st1"/>
		</g>
		<g id="shape4-7" v:mID="4" v:groupContext="shape" transform="translate(0.24,-124.855)">
			<title>Sheet.4</title>
			<rect x="0" y="125.095" width="20.7692" height="20.7692" class="st1"/>
		</g>
		<g id="shape5-9" v:mID="5" v:groupContext="shape" transform="translate(104.086,-104.086) scale(-1,1)">
			<title>Sheet.5</title>
			<rect x="0" y="125.095" width="20.7692" height="20.7692" class="st1"/>
		</g>
		<g id="shape6-11" v:mID="6" v:groupContext="shape" transform="translate(83.3169,-83.3169) scale(-1,1)">
			<title>Sheet.6</title>
			<rect x="0" y="125.095" width="20.7692" height="20.7692" class="st1"/>
		</g>
		<g id="shape7-13" v:mID="7" v:groupContext="shape" transform="translate(104.086,-124.855) scale(-1,1)">
			<title>Sheet.7</title>
			<rect x="0" y="125.095" width="20.7692" height="20.7692" class="st1"/>
		</g>
		<g id="shape8-15" v:mID="8" v:groupContext="shape" transform="translate(104.086,249.951) rotate(180)">
			<title>Sheet.8</title>
			<rect x="0" y="125.095" width="20.7692" height="20.7692" class="st1"/>
		</g>
		<g id="shape9-17" v:mID="9" v:groupContext="shape" transform="translate(83.3169,229.182) rotate(180)">
			<title>Sheet.9</title>
			<rect x="0" y="125.095" width="20.7692" height="20.7692" class="st1"/>
		</g>
		<g id="shape10-19" v:mID="10" v:groupContext="shape" transform="translate(104.086,270.72) rotate(180)">
			<title>Sheet.10</title>
			<rect x="0" y="125.095" width="20.7692" height="20.7692" class="st1"/>
		</g>
		<g id="shape11-21" v:mID="11" v:groupContext="shape" transform="translate(0.24,249.951) scale(1,-1)">
			<title>Sheet.11</title>
			<rect x="0" y="125.095" width="20.7692" height="20.7692" class="st1"/>
		</g>
		<g id="shape12-23" v:mID="12" v:groupContext="shape" transform="translate(21.0092,229.182) scale(1,-1)">
			<title>Sheet.12</title>
			<rect x="0" y="125.095" width="20.7692" height="20.7692" class="st1"/>
		</g>
		<g id="shape13-25" v:mID="13" v:groupContext="shape" transform="translate(0.24,270.72) scale(1,-1)">
			<title>Sheet.13</title>
			<rect x="0" y="125.095" width="20.7692" height="20.7692" class="st1"/>
		</g>
		<g id="shape14-27" v:mID="14" v:groupContext="shape" transform="translate(457.163,-124.855)">
			<title>Sheet.14</title>
			<rect x="0" y="125.095" width="20.7692" height="20.7692" class="st1"/>
		</g>
		<g id="shape15-29" v:mID="15" v:groupContext="shape" transform="translate(477.932,-104.086)">
			<title>Sheet.15</title>
			<rect x="0" y="125.095" width="20.7692" height="20.7692" class="st1"/>
		</g>
		<g id="shape16-31" v:mID="16" v:groupContext="shape" transform="translate(498.702,-83.3169)">
			<title>Sheet.16</title>
			<rect x="0" y="125.095" width="20.7692" height="20.7692" class="st1"/>
		</g>
		<g id="shape17-33" v:mID="17" v:groupContext="shape" transform="translate(519.471,-62.5477)">
			<title>Sheet.17</title>
			<rect x="0" y="125.095" width="20.7692" height="20.7692" class="st1"/>
		</g>
		<g id="shape18-35" v:mID="18" v:groupContext="shape" transform="translate(644.566,83.3169) rotate(90)">
			<title>Sheet.18</title>
			<rect x="0" y="125.095" width="20.7692" height="20.7692" class="st1"/>
		</g>
		<g id="shape19-37" v:mID="19" v:groupContext="shape" transform="translate(623.797,104.086) rotate(90)">
			<title>Sheet.19</title>
			<rect x="0" y="125.095" width="20.7692" height="20.7692" class="st1"/>
		</g>
		<g id="shape20-39" v:mID="20" v:groupContext="shape" transform="translate(603.028,124.855) rotate(90)">
			<title>Sheet.20</title>
			<rect x="0" y="125.095" width="20.7692" height="20.7692" class="st1"/>
		</g>
		<g id="shape21-41" v:mID="21" v:groupContext="shape" transform="translate(145.625,-104.086) scale(-1,1)">
			<title>Sheet.21</title>
			<rect x="0" y="125.095" width="20.7692" height="20.7692" class="st1"/>
		</g>
		<g id="shape22-43" v:mID="22" v:groupContext="shape" transform="translate(145.625,-124.855) scale(-1,1)">
			<title>Sheet.22</title>
			<rect x="0" y="125.095" width="20.7692" height="20.7692" class="st1"/>
		</g>
		<g id="shape23-45" v:mID="23" v:groupContext="shape" transform="translate(145.625,-62.5477) scale(-1,1)">
			<title>Sheet.23</title>
			<rect x="0" y="125.095" width="20.7692" height="20.7692" class="st1"/>
		</g>
		<g id="shape24-47" v:mID="24" v:groupContext="shape" transform="translate(145.625,-83.3169) scale(-1,1)">
			<title>Sheet.24</title>
			<rect x="0" y="125.095" width="20.7692" height="20.7692" class="st1"/>
		</g>
		<g id="shape25-49" v:mID="25" v:groupContext="shape" transform="translate(145.625,-21.0092) scale(-1,1)">
			<title>Sheet.25</title>
			<rect x="0" y="125.095" width="20.7692" height="20.7692" class="st1"/>
		</g>
		<g id="shape26-51" v:mID="26" v:groupContext="shape" transform="translate(145.625,-41.7785) scale(-1,1)">
			<title>Sheet.26</title>
			<rect x="0" y="125.095" width="20.7692" height="20.7692" class="st1"/>
		</g>
		<g id="shape27-53" v:mID="27" v:groupContext="shape" transform="translate(145.625,-0.24) scale(-1,1)">
			<title>Sheet.27</title>
			<rect x="0" y="125.095" width="20.7692" height="20.7692" class="st1"/>
		</g>
		<g id="shape28-55" v:mID="28" v:groupContext="shape" transform="translate(312.258,145.625) rotate(90) scale(-1,1)">
			<title>Sheet.28</title>
			<rect x="0" y="125.095" width="20.7692" height="20.7692" class="st1"/>
		</g>
		<g id="shape29-57" v:mID="29" v:groupContext="shape" transform="translate(333.028,145.625) rotate(90) scale(-1,1)">
			<title>Sheet.29</title>
			<rect x="0" y="125.095" width="20.7692" height="20.7692" class="st1"/>
		</g>
		<g id="shape30-59" v:mID="30" v:groupContext="shape" transform="translate(291.489,145.625) rotate(90) scale(-1,1)">
			<title>Sheet.30</title>
			<rect x="0" y="125.095" width="20.7692" height="20.7692" class="st1"/>
		</g>
		<g id="shape31-61" v:mID="31" v:groupContext="shape" transform="translate(312.258,21.0092) rotate(90) scale(-1,1)">
			<title>Sheet.31</title>
			<rect x="0" y="125.095" width="20.7692" height="20.7692" class="st1"/>
		</g>
		<g id="shape32-63" v:mID="32" v:groupContext="shape" transform="translate(333.028,21.0092) rotate(90) scale(-1,1)">
			<title>Sheet.32</title>
			<rect x="0" y="125.095" width="20.7692" height="20.7692" class="st1"/>
		</g>
		<g id="shape33-65" v:mID="33" v:groupContext="shape" transform="translate(291.489,21.0092) rotate(90) scale(-1,1)">
			<title>Sheet.33</title>
			<rect x="0" y="125.095" width="20.7692" height="20.7692" class="st1"/>
		</g>
		<g id="shape34-67" v:mID="34" v:groupContext="shape" transform="translate(291.489,83.3169) rotate(90) scale(-1,1)">
			<title>Sheet.34</title>
			<rect x="0" y="125.095" width="20.7692" height="20.7692" class="st1"/>
		</g>
		<g id="shape35-69" v:mID="35" v:groupContext="shape" transform="translate(312.258,83.3169) rotate(90) scale(-1,1)">
			<title>Sheet.35</title>
			<rect x="0" y="125.095" width="20.7692" height="20.7692" class="st1"/>
		</g>
		<g id="shape36-71" v:mID="36" v:groupContext="shape" transform="translate(249.471,-104.086) scale(-1,1)">
			<title>Sheet.36</title>
			<rect x="0" y="125.095" width="20.7692" height="20.7692" class="st1"/>
		</g>
		<g id="shape37-73" v:mID="37" v:groupContext="shape" transform="translate(249.471,-124.855) scale(-1,1)">
			<title>Sheet.37</title>
			<rect x="0" y="125.095" width="20.7692" height="20.7692" class="st1"/>
		</g>
		<g id="shape38-75" v:mID="38" v:groupContext="shape" transform="translate(249.471,-62.5477) scale(-1,1)">
			<title>Sheet.38</title>
			<rect x="0" y="125.095" width="20.7692" height="20.7692" class="st1"/>
		</g>
		<g id="shape39-77" v:mID="39" v:groupContext="shape" transform="translate(249.471,-83.3169) scale(-1,1)">
			<title>Sheet.39</title>
			<rect x="0" y="125.095" width="20.7692" height="20.7692" class="st1"/>
		</g>
		<g id="shape40-79" v:mID="40" v:groupContext="shape" transform="translate(249.471,-21.0092) scale(-1,1)">
			<title>Sheet.40</title>
			<rect x="0" y="125.095" width="20.7692" height="20.7692" class="st1"/>
		</g>
		<g id="shape41-81" v:mID="41" v:groupContext="shape" transform="translate(249.471,-41.7785) scale(-1,1)">
			<title>Sheet.41</title>
			<rect x="0" y="125.095" width="20.7692" height="20.7692" class="st1"/>
		</g>
		<g id="shape42-83" v:mID="42" v:groupContext="shape" transform="translate(249.471,-0.24) scale(-1,1)">
			<title>Sheet.42</title>
			<rect x="0" y="125.095" width="20.7692" height="20.7692" class="st1"/>
		</g>
		<g id="shape43-85" v:mID="43" v:groupContext="shape" transform="translate(416.105,145.625) rotate(90) scale(-1,1)">
			<title>Sheet.43</title>
			<rect x="0" y="125.095" width="20.7692" height="20.7692" class="st1"/>
		</g>
		<g id="shape44-87" v:mID="44" v:groupContext="shape" transform="translate(436.874,145.625) rotate(90) scale(-1,1)">
			<title>Sheet.44</title>
			<rect x="0" y="125.095" width="20.7692" height="20.7692" class="st1"/>
		</g>
		<g id="shape45-89" v:mID="45" v:groupContext="shape" transform="translate(395.335,145.625) rotate(90) scale(-1,1)">
			<title>Sheet.45</title>
			<rect x="0" y="125.095" width="20.7692" height="20.7692" class="st1"/>
		</g>
		<g id="shape46-91" v:mID="46" v:groupContext="shape" transform="translate(353.317,-104.086) scale(-1,1)">
			<title>Sheet.46</title>
			<rect x="0" y="125.095" width="20.7692" height="20.7692" class="st1"/>
		</g>
		<g id="shape47-93" v:mID="47" v:groupContext="shape" transform="translate(353.317,-124.855) scale(-1,1)">
			<title>Sheet.47</title>
			<rect x="0" y="125.095" width="20.7692" height="20.7692" class="st1"/>
		</g>
		<g id="shape48-95" v:mID="48" v:groupContext="shape" transform="translate(353.317,-62.5477) scale(-1,1)">
			<title>Sheet.48</title>
			<rect x="0" y="125.095" width="20.7692" height="20.7692" class="st1"/>
		</g>
		<g id="shape49-97" v:mID="49" v:groupContext="shape" transform="translate(353.317,-83.3169) scale(-1,1)">
			<title>Sheet.49</title>
			<rect x="0" y="125.095" width="20.7692" height="20.7692" class="st1"/>
		</g>
		<g id="shape50-99" v:mID="50" v:groupContext="shape" transform="translate(353.317,-21.0092) scale(-1,1)">
			<title>Sheet.50</title>
			<rect x="0" y="125.095" width="20.7692" height="20.7692" class="st1"/>
		</g>
		<g id="shape51-101" v:mID="51" v:groupContext="shape" transform="translate(353.317,-41.7785) scale(-1,1)">
			<title>Sheet.51</title>
			<rect x="0" y="125.095" width="20.7692" height="20.7692" class="st1"/>
		</g>
		<g id="shape52-103" v:mID="52" v:groupContext="shape" transform="translate(353.317,-0.24) scale(-1,1)">
			<title>Sheet.52</title>
			<rect x="0" y="125.095" width="20.7692" height="20.7692" class="st1"/>
		</g>
		<g id="shape53-105" v:mID="53" v:groupContext="shape" transform="translate(519.951,21.0092) rotate(90) scale(-1,1)">
			<title>Sheet.53</title>
			<rect x="0" y="125.095" width="20.7692" height="20.7692" class="st1"/>
		</g>
		<g id="shape54-107" v:mID="54" v:groupContext="shape" transform="translate(540.72,21.0092) rotate(90) scale(-1,1)">
			<title>Sheet.54</title>
			<rect x="0" y="125.095" width="20.7692" height="20.7692" class="st1"/>
		</g>
		<g id="shape55-109" v:mID="55" v:groupContext="shape" transform="translate(499.182,21.0092) rotate(90) scale(-1,1)">
			<title>Sheet.55</title>
			<rect x="0" y="125.095" width="20.7692" height="20.7692" class="st1"/>
		</g>
		<g id="shape56-111" v:mID="56" v:groupContext="shape" transform="translate(499.182,83.3169) rotate(90) scale(-1,1)">
			<title>Sheet.56</title>
			<rect x="0" y="125.095" width="20.7692" height="20.7692" class="st1"/>
		</g>
		<g id="shape57-113" v:mID="57" v:groupContext="shape" transform="translate(519.951,83.3169) rotate(90) scale(-1,1)">
			<title>Sheet.57</title>
			<rect x="0" y="125.095" width="20.7692" height="20.7692" class="st1"/>
		</g>
		<g id="shape58-115" v:mID="58" v:groupContext="shape" transform="translate(540.72,83.3169) rotate(90) scale(-1,1)">
			<title>Sheet.58</title>
			<rect x="0" y="125.095" width="20.7692" height="20.7692" class="st1"/>
		</g>
		<g id="shape59-117" v:mID="59" v:groupContext="shape" transform="translate(561.489,41.7785) rotate(90) scale(-1,1)">
			<title>Sheet.59</title>
			<rect x="0" y="125.095" width="20.7692" height="20.7692" class="st1"/>
		</g>
		<g id="shape60-119" v:mID="60" v:groupContext="shape" transform="translate(561.489,62.5477) rotate(90) scale(-1,1)">
			<title>Sheet.60</title>
			<rect x="0" y="125.095" width="20.7692" height="20.7692" class="st1"/>
		</g>
	</g>
</svg>
