<?xml version="1.0" encoding="UTF-8" standalone="no"?>
<!DOCTYPE svg PUBLIC "-//W3C//DTD SVG 1.0//EN" "http://www.w3.org/TR/2001/REC-SVG-20010904/DTD/svg10.dtd">
<!-- Generated by Microsoft Visio 11.0, SVG Export, v1.0 xelp-ascii-vector.svg Page-1 -->
<svg xmlns="http://www.w3.org/2000/svg" xmlns:xlink="http://www.w3.org/1999/xlink" xmlns:ev="http://www.w3.org/2001/xml-events"
		xmlns:v="http://schemas.microsoft.com/visio/2003/SVGExtensions/" width="3.28125in" height="1.90625in"
		viewBox="0 0 236.25 137.25" xml:space="preserve" color-interpolation-filters="sRGB" class="st3">
	<v:documentProperties v:langID="1033" v:viewMarkup="false"/>

	<style type="text/css">
	<![CDATA[
		.st1 {stroke:#000000;stroke-linecap:round;stroke-linejoin:round;stroke-width:2.25}
		.st2 {fill:#000000;stroke:#000000;stroke-linecap:round;stroke-linejoin:round;stroke-width:2.25}
		.st3 {fill:none;fill-rule:evenodd;font-size:12px;overflow:visible;stroke-linecap:square;stroke-miterlimit:3}
	]]>
	</style>

	<g v:mID="0" v:index="1" v:groupContext="foregroundPage">
		<title>Page-1</title>
		<v:pageProperties v:drawingScale="1" v:pageScale="1" v:drawingUnits="0" v:shadowOffsetX="9" v:shadowOffsetY="-9"/>
		<g id="group166-1" transform="translate(2.25,-2.25)" v:mID="166" v:groupContext="group">
			<title>Sheet.166</title>
			<g id="shape114-2" v:mID="114" v:groupContext="shape" transform="translate(0,-108)">
				<title>Sheet.114</title>
				<path d="M0 137.25 L11.81 137.25" class="st1"/>
			</g>
			<g id="shape115-5" v:mID="115" v:groupContext="shape" transform="translate(54.5625,-108)">
				<title>Sheet.115</title>
				<path d="M0 137.25 L10.69 137.25" class="st1"/>
			</g>
			<g id="shape116-8" v:mID="116" v:groupContext="shape" transform="translate(95.0625,-81)">
				<title>Sheet.116</title>
				<path d="M0 137.25 L10.69 137.25" class="st1"/>
			</g>
			<g id="shape117-11" v:mID="117" v:groupContext="shape" transform="translate(95.0625,-54)">
				<title>Sheet.117</title>
				<path d="M0 137.25 L10.69 137.25" class="st1"/>
			</g>
			<g id="shape118-14" v:mID="118" v:groupContext="shape" transform="translate(109.125,-54)">
				<title>Sheet.118</title>
				<path d="M0 137.25 L10.69 137.25" class="st1"/>
			</g>
			<g id="shape119-17" v:mID="119" v:groupContext="shape" transform="translate(136.125,-27)">
				<title>Sheet.119</title>
				<path d="M0 137.25 L10.69 137.25" class="st1"/>
			</g>
			<g id="shape120-20" v:mID="120" v:groupContext="shape" transform="translate(162.563,0)">
				<title>Sheet.120</title>
				<path d="M0 137.25 L10.69 137.25" class="st1"/>
			</g>
			<g id="shape121-23" v:mID="121" v:groupContext="shape" transform="translate(189.563,-27)">
				<title>Sheet.121</title>
				<path d="M0 137.25 L10.69 137.25" class="st1"/>
			</g>
			<g id="shape122-26" v:mID="122" v:groupContext="shape" transform="translate(14.625,-108)">
				<title>Sheet.122</title>
				<path d="M0 137.25 L10.69 137.25" class="st1"/>
			</g>
			<g id="shape123-29" v:mID="123" v:groupContext="shape" transform="translate(68.0625,-108)">
				<title>Sheet.123</title>
				<path d="M0 137.25 L10.69 137.25" class="st1"/>
			</g>
			<g id="shape124-32" v:mID="124" v:groupContext="shape" transform="translate(81.5625,-108)">
				<title>Sheet.124</title>
				<path d="M0 137.25 L10.69 137.25" class="st1"/>
			</g>
			<g id="shape125-35" v:mID="125" v:groupContext="shape" transform="translate(95.0625,-108)">
				<title>Sheet.125</title>
				<path d="M0 137.25 L10.69 137.25" class="st1"/>
			</g>
			<g id="shape126-38" v:mID="126" v:groupContext="shape" transform="translate(109.125,-108)">
				<title>Sheet.126</title>
				<path d="M0 137.25 L10.69 137.25" class="st1"/>
			</g>
			<g id="shape127-41" v:mID="127" v:groupContext="shape" transform="translate(292.219,63.5625) rotate(90)">
				<title>Sheet.127</title>
				<path d="M0 137.25 L19.69 137.25" class="st1"/>
			</g>
			<g id="shape128-44" v:mID="128" v:groupContext="shape" transform="translate(292.219,90.5625) rotate(90)">
				<title>Sheet.128</title>
				<path d="M0 137.25 L19.69 137.25" class="st1"/>
			</g>
			<g id="shape129-47" v:mID="129" v:groupContext="shape" transform="translate(292.219,36.5625) rotate(90)">
				<title>Sheet.129</title>
				<path d="M0 137.25 L19.69 137.25" class="st1"/>
			</g>
			<g id="shape130-50" v:mID="130" v:groupContext="shape" transform="translate(292.219,9.5625) rotate(90)">
				<title>Sheet.130</title>
				<path d="M0 137.25 L19.69 137.25" class="st1"/>
			</g>
			<g id="shape131-53" v:mID="131" v:groupContext="shape" transform="translate(319.219,63.2813) rotate(90)">
				<title>Sheet.131</title>
				<path d="M0 137.25 L19.69 137.25" class="st1"/>
			</g>
			<g id="shape132-56" v:mID="132" v:groupContext="shape" transform="translate(354.56,138.958) rotate(110.647)">
				<title>Sheet.132</title>
				<path d="M0 137.25 L20.74 137.25" class="st1"/>
			</g>
			<g id="shape133-59" v:mID="133" v:groupContext="shape" transform="translate(203.625,-27)">
				<title>Sheet.133</title>
				<path d="M0 137.25 L10.69 137.25" class="st1"/>
			</g>
			<g id="shape134-62" v:mID="134" v:groupContext="shape" transform="translate(292.219,117.563) rotate(90)">
				<title>Sheet.134</title>
				<path d="M0 137.25 L19.69 137.25" class="st1"/>
			</g>
			<g id="shape135-65" v:mID="135" v:groupContext="shape" transform="translate(319.219,117.563) rotate(90)">
				<title>Sheet.135</title>
				<path d="M0 137.25 L19.69 137.25" class="st1"/>
			</g>
			<g id="shape136-68" v:mID="136" v:groupContext="shape" transform="translate(265.219,90.5625) rotate(90)">
				<title>Sheet.136</title>
				<path d="M0 137.25 L19.69 137.25" class="st1"/>
			</g>
			<g id="shape137-71" v:mID="137" v:groupContext="shape" transform="translate(109.125,-27)">
				<title>Sheet.137</title>
				<path d="M0 137.25 L10.69 137.25" class="st1"/>
			</g>
			<g id="shape138-74" v:mID="138" v:groupContext="shape" transform="translate(14.625,-27)">
				<title>Sheet.138</title>
				<path d="M0 137.25 L10.69 137.25" class="st1"/>
			</g>
			<g id="shape139-77" v:mID="139" v:groupContext="shape" transform="translate(55.125,-27)">
				<title>Sheet.139</title>
				<path d="M0 137.25 L10.69 137.25" class="st1"/>
			</g>
			<g id="shape140-80" v:mID="140" v:groupContext="shape" transform="translate(81.5625,-27)">
				<title>Sheet.140</title>
				<path d="M0 137.25 L10.69 137.25" class="st1"/>
			</g>
			<g id="shape141-83" v:mID="141" v:groupContext="shape" transform="translate(95.0625,-27)">
				<title>Sheet.141</title>
				<path d="M0 137.25 L10.69 137.25" class="st1"/>
			</g>
			<g id="shape142-86" v:mID="142" v:groupContext="shape" transform="translate(369,63.5625) rotate(90)">
				<title>Sheet.142</title>
				<path d="M0 137.25 L19.69 137.25" class="st1"/>
			</g>
			<g id="shape143-89" v:mID="143" v:groupContext="shape" transform="translate(90.378,84.9581) rotate(69.353) scale(1,-1)">
				<title>Sheet.143</title>
				<path d="M0 137.25 L20.74 137.25" class="st1"/>
			</g>
			<g id="shape144-92" v:mID="144" v:groupContext="shape" transform="translate(260.06,112.239) rotate(110.647)">
				<title>Sheet.144</title>
				<path d="M0 137.25 L20.74 137.25" class="st1"/>
			</g>
			<g id="shape145-95" v:mID="145" v:groupContext="shape"
					transform="translate(-4.12202,84.9581) rotate(69.353) scale(1,-1)">
				<title>Sheet.145</title>
				<path d="M0 137.25 L20.74 137.25" class="st1"/>
			</g>
			<g id="shape146-98" v:mID="146" v:groupContext="shape" transform="translate(179.06,84.9581) rotate(110.647)">
				<title>Sheet.146</title>
				<path d="M0 137.25 L20.74 137.25" class="st1"/>
			</g>
			<g id="shape147-101" v:mID="147" v:groupContext="shape" transform="translate(206.06,84.9581) rotate(110.647)">
				<title>Sheet.147</title>
				<path d="M0 137.25 L20.74 137.25" class="st1"/>
			</g>
			<g id="shape148-104" v:mID="148" v:groupContext="shape"
					transform="translate(-125.622,85.2394) rotate(69.353) scale(1,-1)">
				<title>Sheet.148</title>
				<path d="M0 137.25 L20.74 137.25" class="st1"/>
			</g>
			<g id="shape149-107" v:mID="149" v:groupContext="shape"
					transform="translate(-98.9033,84.9581) rotate(69.353) scale(1,-1)">
				<title>Sheet.149</title>
				<path d="M0 137.25 L20.74 137.25" class="st1"/>
			</g>
			<g id="shape150-110" v:mID="150" v:groupContext="shape"
					transform="translate(179.06,61.8544) rotate(69.353) scale(-1,1)">
				<title>Sheet.150</title>
				<path d="M0 137.25 L20.74 137.25" class="st1"/>
			</g>
			<g id="shape151-113" v:mID="151" v:groupContext="shape"
					transform="translate(206.06,61.8544) rotate(69.353) scale(-1,1)">
				<title>Sheet.151</title>
				<path d="M0 137.25 L20.74 137.25" class="st1"/>
			</g>
			<g id="shape152-116" v:mID="152" v:groupContext="shape" transform="translate(-125.622,61.5731) rotate(-69.353)">
				<title>Sheet.152</title>
				<path d="M0 137.25 L20.74 137.25" class="st1"/>
			</g>
			<g id="shape153-119" v:mID="153" v:groupContext="shape" transform="translate(-98.9033,61.8544) rotate(-69.353)">
				<title>Sheet.153</title>
				<path d="M0 137.25 L20.74 137.25" class="st1"/>
			</g>
			<g id="shape154-122" v:mID="154" v:groupContext="shape" transform="translate(190.125,-54)">
				<title>Sheet.154</title>
				<path d="M0 137.25 L10.69 137.25" class="st1"/>
			</g>
			<g id="shape155-125" v:mID="155" v:groupContext="shape" transform="translate(189.844,-81)">
				<title>Sheet.155</title>
				<path d="M0 137.25 L10.69 137.25" class="st1"/>
			</g>
			<g id="shape156-128" v:mID="156" v:groupContext="shape" transform="translate(189.563,-108)">
				<title>Sheet.156</title>
				<path d="M0 137.25 L10.69 137.25" class="st1"/>
			</g>
			<g id="shape157-131" v:mID="157" v:groupContext="shape" transform="translate(203.625,-108)">
				<title>Sheet.157</title>
				<path d="M0 137.25 L10.69 137.25" class="st1"/>
			</g>
			<g id="shape158-134" v:mID="158" v:groupContext="shape" transform="translate(162.844,-108)">
				<title>Sheet.158</title>
				<path d="M0 137.25 L10.69 137.25" class="st1"/>
			</g>
			<g id="shape159-137" v:mID="159" v:groupContext="shape" transform="translate(319.219,33.75) rotate(90)">
				<title>Sheet.159</title>
				<path d="M0 137.25 L5.06 137.25" class="st1"/>
			</g>
			<g id="shape160-140" v:mID="160" v:groupContext="shape" transform="translate(132.75,-132.75)">
				<title>Sheet.160</title>
				<path d="M0 137.25 L16.87 137.25" class="st1"/>
			</g>
			<g id="shape161-143" v:mID="161" v:groupContext="shape" transform="translate(265.219,9.5625) rotate(90)">
				<title>Sheet.161</title>
				<path d="M0 137.25 L19.69 137.25" class="st1"/>
			</g>
			<g id="shape162-146" v:mID="162" v:groupContext="shape" transform="translate(15.75,-60.1875)">
				<title>Sheet.162</title>
				<path d="M0 129.09 L8.16 133.03 L0 137.25" class="st1"/>
			</g>
			<g id="shape163-149" v:mID="163" v:groupContext="shape" transform="translate(64.4063,-60.1875) scale(-1,1)">
				<title>Sheet.163</title>
				<path d="M0 129.09 L8.16 133.03 L0 137.25" class="st1"/>
			</g>
			<g id="shape164-152" v:mID="164" v:groupContext="shape" transform="translate(181.547,-30.5156)">
				<title>Sheet.164</title>
				<ellipse cx="0.492188" cy="136.758" rx="0.492188" ry="0.492188" class="st2"/>
			</g>
			<g id="shape165-154" v:mID="165" v:groupContext="shape" transform="translate(205.875,-54.5625)">
				<title>Sheet.165</title>
				<path d="M-0 117 A10.6875 5.625 90 0 1 5.63 127.69 A9.5625 5.625 90 0 1 0 137.25" class="st1"/>
			</g>
		</g>
	</g>
</svg>
