<?xml version="1.0" encoding="UTF-8" standalone="no"?>
<!DOCTYPE svg PUBLIC "-//W3C//DTD SVG 1.0//EN" "http://www.w3.org/TR/2001/REC-SVG-20010904/DTD/svg10.dtd">
<!-- Generated by Microsoft Visio 11.0, SVG Export, v1.0 xelp-icon.svg Page-1 -->
<svg xmlns="http://www.w3.org/2000/svg" xmlns:xlink="http://www.w3.org/1999/xlink" xmlns:ev="http://www.w3.org/2001/xml-events"
		xmlns:v="http://schemas.microsoft.com/visio/2003/SVGExtensions/" width="1.625in" height="1.5639in"
		viewBox="0 0 117 112.601" xml:space="preserve" color-interpolation-filters="sRGB" class="st4">
	<v:documentProperties v:langID="1033" v:viewMarkup="false"/>

	<style type="text/css">
	<![CDATA[
		.st1 {fill:#ffffff;stroke:#000000;stroke-linecap:butt;stroke-width:4.5}
		.st2 {fill:#000000;stroke:#000000;stroke-linecap:butt;stroke-width:4.5}
		.st3 {fill:#ffffff;stroke:none;stroke-linecap:round;stroke-linejoin:round;stroke-width:0.24}
		.st4 {fill:none;fill-rule:evenodd;font-size:12px;overflow:visible;stroke-linecap:square;stroke-miterlimit:3}
	]]>
	</style>

	<g v:mID="0" v:index="1" v:groupContext="foregroundPage">
		<title>Page-1</title>
		<v:pageProperties v:drawingScale="1" v:pageScale="1" v:drawingUnits="0" v:shadowOffsetX="9" v:shadowOffsetY="-9"/>
		<g id="group252-1" transform="translate(4.5,-2.25)" v:mID="252" v:groupContext="group">
			<title>Sheet.252</title>
			<g id="group293-2" v:mID="293" v:groupContext="group">
				<title>Sheet.293</title>
				<g id="shape294-3" v:mID="294" v:groupContext="shape" transform="translate(0,-7.6387)">
					<title>Sheet.294</title>
					<rect x="0" y="14.3887" width="100.394" height="98.2119" class="st1"/>
				</g>
				<g id="shape295-5" v:mID="295" v:groupContext="shape" transform="translate(9.12676,-2.25)">
					<title>Sheet.295</title>
					<rect x="0" y="18.1006" width="98.8732" height="94.5" class="st2"/>
				</g>
			</g>
			<g id="shape296-7" v:mID="296" v:groupContext="shape" transform="translate(20.25,-63.7253)">
				<title>Sheet.296</title>
				<rect x="0" y="104.501" width="8.1" height="8.1" class="st3"/>
			</g>
			<g id="shape297-9" v:mID="297" v:groupContext="shape" transform="translate(28.35,-55.6253)">
				<title>Sheet.297</title>
				<rect x="0" y="104.501" width="8.1" height="8.1" class="st3"/>
			</g>
			<g id="shape298-11" v:mID="298" v:groupContext="shape" transform="translate(36.45,-47.5253)">
				<title>Sheet.298</title>
				<rect x="0" y="104.501" width="8.1" height="8.1" class="st3"/>
			</g>
			<g id="shape299-13" v:mID="299" v:groupContext="shape" transform="translate(20.25,-71.8253)">
				<title>Sheet.299</title>
				<rect x="0" y="104.501" width="8.1" height="8.1" class="st3"/>
			</g>
			<g id="shape300-15" v:mID="300" v:groupContext="shape" transform="translate(60.75,-63.7253) scale(-1,1)">
				<title>Sheet.300</title>
				<rect x="0" y="104.501" width="8.1" height="8.1" class="st3"/>
			</g>
			<g id="shape301-17" v:mID="301" v:groupContext="shape" transform="translate(52.65,-55.6253) scale(-1,1)">
				<title>Sheet.301</title>
				<rect x="0" y="104.501" width="8.1" height="8.1" class="st3"/>
			</g>
			<g id="shape302-19" v:mID="302" v:groupContext="shape" transform="translate(60.75,-71.8253) scale(-1,1)">
				<title>Sheet.302</title>
				<rect x="0" y="104.501" width="8.1" height="8.1" class="st3"/>
			</g>
			<g id="shape303-21" v:mID="303" v:groupContext="shape" transform="translate(60.75,185.776) rotate(180)">
				<title>Sheet.303</title>
				<rect x="0" y="104.501" width="8.1" height="8.1" class="st3"/>
			</g>
			<g id="shape304-23" v:mID="304" v:groupContext="shape" transform="translate(52.65,177.676) rotate(180)">
				<title>Sheet.304</title>
				<rect x="0" y="104.501" width="8.1" height="8.1" class="st3"/>
			</g>
			<g id="shape305-25" v:mID="305" v:groupContext="shape" transform="translate(60.75,193.876) rotate(180)">
				<title>Sheet.305</title>
				<rect x="0" y="104.501" width="8.1" height="8.1" class="st3"/>
			</g>
			<g id="shape306-27" v:mID="306" v:groupContext="shape" transform="translate(20.25,185.776) scale(1,-1)">
				<title>Sheet.306</title>
				<rect x="0" y="104.501" width="8.1" height="8.1" class="st3"/>
			</g>
			<g id="shape307-29" v:mID="307" v:groupContext="shape" transform="translate(28.35,177.676) scale(1,-1)">
				<title>Sheet.307</title>
				<rect x="0" y="104.501" width="8.1" height="8.1" class="st3"/>
			</g>
			<g id="shape308-31" v:mID="308" v:groupContext="shape" transform="translate(20.25,193.876) scale(1,-1)">
				<title>Sheet.308</title>
				<rect x="0" y="104.501" width="8.1" height="8.1" class="st3"/>
			</g>
			<g id="shape309-33" v:mID="309" v:groupContext="shape" transform="translate(68.85,-71.8253)">
				<title>Sheet.309</title>
				<rect x="0" y="104.501" width="8.1" height="8.1" class="st3"/>
			</g>
			<g id="shape310-35" v:mID="310" v:groupContext="shape" transform="translate(76.95,-63.7253)">
				<title>Sheet.310</title>
				<rect x="0" y="104.501" width="8.1" height="8.1" class="st3"/>
			</g>
			<g id="shape311-37" v:mID="311" v:groupContext="shape" transform="translate(85.05,-55.6253)">
				<title>Sheet.311</title>
				<rect x="0" y="104.501" width="8.1" height="8.1" class="st3"/>
			</g>
			<g id="shape312-39" v:mID="312" v:groupContext="shape" transform="translate(93.15,-47.5253)">
				<title>Sheet.312</title>
				<rect x="0" y="104.501" width="8.1" height="8.1" class="st3"/>
			</g>
			<g id="shape313-41" v:mID="313" v:groupContext="shape" transform="translate(197.651,65.0753) rotate(90)">
				<title>Sheet.313</title>
				<rect x="0" y="104.501" width="8.1" height="8.1" class="st3"/>
			</g>
			<g id="shape314-43" v:mID="314" v:groupContext="shape" transform="translate(189.551,73.1753) rotate(90)">
				<title>Sheet.314</title>
				<rect x="0" y="104.501" width="8.1" height="8.1" class="st3"/>
			</g>
			<g id="shape315-45" v:mID="315" v:groupContext="shape" transform="translate(181.451,81.2753) rotate(90)">
				<title>Sheet.315</title>
				<rect x="0" y="104.501" width="8.1" height="8.1" class="st3"/>
			</g>
		</g>
	</g>
</svg>
